<svg xmlns="http://www.w3.org/2000/svg" width="245.322" height="80.248" viewBox="0 0 245.322 80.248">
  <g id="Group_1612" data-name="Group 1612" transform="translate(-885.171 -594.752)">
    <path id="Path_59" data-name="Path 59" d="M439.469,1024.968V958.084a6.679,6.679,0,0,1,2.97-5.557,6.675,6.675,0,0,1,3.713-1.126H678.108a6.676,6.676,0,0,1,4.725,1.957,6.626,6.626,0,0,1,.832,1.013,6.736,6.736,0,0,1,.617,1.155,6.71,6.71,0,0,1,.509,2.558v66.883a6.681,6.681,0,0,1-6.683,6.682H446.151a6.677,6.677,0,0,1-4.725-1.957,6.555,6.555,0,0,1-.831-1.012,6.675,6.675,0,0,1-1.126-3.712Z" transform="translate(445.702 -356.649)"/>
    <path id="Path_60" data-name="Path 60" d="M503.441,1004.444a39.786,39.786,0,0,1-3.593,6.707c-2.332,3.552-5.621,7.976-9.694,8.012-3.623.036-4.551-2.356-9.466-2.327s-5.94,2.371-9.561,2.337c-4.074-.037-7.19-4.031-9.522-7.584-6.526-9.931-7.207-21.586-3.183-27.782,2.86-4.405,7.37-6.983,11.612-6.983,4.318,0,7.033,2.369,10.6,2.369,3.463,0,5.575-2.371,10.568-2.371a14.085,14.085,0,0,1,10.621,5.609c-9.334,5.115-7.818,18.449,1.615,22.013" transform="translate(445.702 -356.649)" fill="#fff"/>
    <path id="Path_61" data-name="Path 61" d="M487.419,972.854a12.117,12.117,0,0,0,2.689-8.977,13.081,13.081,0,0,0-8.453,4.547c-1.837,2.231-3.351,5.54-2.762,8.757a11.059,11.059,0,0,0,8.526-4.327" transform="translate(445.702 -356.649)" fill="#fff"/>
    <path id="Path_62" data-name="Path 62" d="M525.536,988.18c.315,1.229.655,2.5,1.094,3.882l2.518,7.295H521.98l2.483-7.343c.378-1.19.737-2.477,1.073-3.834m-2.218-4.522-9.346,27.509h4.281l2.788-8.446h9.05l2.869,8.446h4.4l-9.386-27.509Z" transform="translate(445.702 -356.649)" fill="#fff"/>
    <path id="Path_63" data-name="Path 63" d="M548.414,994.233c3.71,0,5.372,3.438,5.372,6.844,0,4.393-2.119,7.121-5.531,7.121a5.044,5.044,0,0,1-4.9-3.861,5.291,5.291,0,0,1-.148-1.347v-3.348a6.327,6.327,0,0,1,.132-1.028c.021-.113.044-.226.06-.338a5.272,5.272,0,0,1,5.017-4.043m1.037-3.445a7.785,7.785,0,0,0-6.616,3.174l-.167-2.738h-3.807l.023.351c.112,1.706.16,3.582.16,6.275v21.205h4.161v-9.9a7.314,7.314,0,0,0,5.69,2.445,8.584,8.584,0,0,0,6.308-2.681,11.382,11.382,0,0,0,2.783-8.007,11.064,11.064,0,0,0-2.418-7.309,7.914,7.914,0,0,0-6.117-2.819" transform="translate(445.702 -356.649)" fill="#fff"/>
    <path id="Path_64" data-name="Path 64" d="M569.849,994.233c3.708,0,5.37,3.438,5.37,6.844,0,4.393-2.121,7.121-5.531,7.121a5.046,5.046,0,0,1-4.9-3.861,5.343,5.343,0,0,1-.147-1.347v-3.348a6.233,6.233,0,0,1,.132-1.032c.022-.112.042-.222.06-.334a5.271,5.271,0,0,1,5.018-4.043m1.035-3.445a7.788,7.788,0,0,0-6.616,3.174l-.167-2.738h-3.806l.021.351c.112,1.708.161,3.582.161,6.275v21.205h4.162v-9.9a7.311,7.311,0,0,0,5.688,2.445,8.59,8.59,0,0,0,6.31-2.681,11.385,11.385,0,0,0,2.781-8.007A11.064,11.064,0,0,0,577,993.607a7.912,7.912,0,0,0-6.116-2.819" transform="translate(445.702 -356.649)" fill="#fff"/>
    <path id="Path_65" data-name="Path 65" d="M597.737,995.312c-3.887-1.5-5.13-2.687-5.13-4.873,0-1.84,1.462-3.7,4.731-3.7a9.442,9.442,0,0,1,4.886,1.227l.352.216,1.175-3.473-.232-.136a12.052,12.052,0,0,0-6.061-1.36c-5.307,0-9.017,3.135-9.017,7.619,0,3.617,2.323,6.145,7.306,7.958,3.533,1.32,4.849,2.671,4.849,4.991,0,2.624-2.028,4.253-5.292,4.253a11.394,11.394,0,0,1-6-1.7l-.362-.232-1.116,3.554.206.136a14.246,14.246,0,0,0,7.032,1.808c7.155,0,9.691-4.362,9.691-8.1,0-3.851-2.033-6.227-7.02-8.2" transform="translate(445.702 -356.649)" fill="#fff"/>
    <path id="Path_66" data-name="Path 66" d="M612.248,986.488l-4.083,1.28v3.458h-2.986v3.327h2.986v10.19c0,2.464.472,4.19,1.443,5.28a5.329,5.329,0,0,0,4.026,1.583,9.756,9.756,0,0,0,3.218-.5l.232-.082-.2-3.334-.4.125a6.281,6.281,0,0,1-1.934.223c-1.613,0-2.3-1.021-2.3-3.416v-10.07h5.023v-3.327h-5.023Z" transform="translate(445.702 -356.649)" fill="#fff"/>
    <path id="Path_67" data-name="Path 67" d="M627.464,994.075c3.745,0,5.449,3.65,5.449,7.044,0,4.171-2.325,7.2-5.529,7.2h-.039c-3.158,0-5.449-2.978-5.449-7.079,0-3.565,1.723-7.164,5.568-7.164m.12-3.285c-5.824,0-9.891,4.346-9.891,10.566,0,6.035,3.937,10.25,9.573,10.25h.037c4.766,0,9.891-3.32,9.891-10.607a10.521,10.521,0,0,0-2.651-7.364,9.269,9.269,0,0,0-6.959-2.845" transform="translate(445.702 -356.649)" fill="#fff"/>
    <path id="Path_68" data-name="Path 68" d="M649.945,990.981l-.25-.063a3.98,3.98,0,0,0-1.036-.13,5.939,5.939,0,0,0-5.219,3.35l-.121-2.914h-3.736l.024.351c.111,1.649.158,3.5.158,5.995l-.039,13.6h4.162v-10.609a10.482,10.482,0,0,1,.116-1.612c.469-2.548,2.187-4.2,4.378-4.2a10.827,10.827,0,0,1,1.116.07l.447.047Z" transform="translate(445.702 -356.649)" fill="#fff"/>
    <path id="Path_69" data-name="Path 69" d="M659.025,993.916a4.107,4.107,0,0,1,3.055,1.165,5.929,5.929,0,0,1,1.435,3.873h-9.494c.387-2.4,1.891-5.038,5-5.038m.277-3.167c-5.54,0-9.411,4.426-9.411,10.767,0,6.1,3.849,10.049,9.81,10.049a15.986,15.986,0,0,0,6.591-1.264l.249-.114-.8-3.1-.347.14a12.879,12.879,0,0,1-5.214.933c-1.808,0-5.98-.6-6.235-6.034l13.434.039.055-.264a9.325,9.325,0,0,0,.125-1.738c0-4.343-2.162-9.413-8.257-9.413" transform="translate(445.702 -356.649)" fill="#fff"/>
    <path id="Path_70" data-name="Path 70" d="M515.861,976.4a13.33,13.33,0,0,0,1.888.078c3.994.02,6.161-2.009,6.161-5.524.022-3.111-1.91-5.024-5.859-5.024a12.019,12.019,0,0,0-2.19.173Zm-1.889-11.532a30.029,30.029,0,0,1,3.992-.271c2.684,0,4.594.542,5.86,1.6a5.7,5.7,0,0,1,2.062,4.693,6.6,6.6,0,0,1-2.082,5.063c-1.374,1.215-3.607,1.873-6.42,1.873a28.979,28.979,0,0,1-3.412-.156Z" transform="translate(445.702 -356.649)" fill="#fff"/>
    <path id="Path_71" data-name="Path 71" d="M532.644,976.647c1.8,0,3.156-1.525,3.156-3.651,0-1.584-.881-3.574-3.112-3.574-2.212,0-3.178,1.855-3.178,3.632,0,2.048,1.289,3.593,3.113,3.593Zm-.063,1.275a4.691,4.691,0,0,1-4.979-4.81,4.822,4.822,0,0,1,5.149-4.964,4.656,4.656,0,0,1,5,4.791,4.839,4.839,0,0,1-5.149,4.983Z" transform="translate(445.702 -356.649)" fill="#fff"/>
    <path id="Path_72" data-name="Path 72" d="M540.742,968.361l1.394,4.734c.279,1.043.558,2.027.751,2.994h.063c.237-.947.581-1.951.925-2.975l1.7-4.753h1.587l1.61,4.675c.388,1.1.688,2.106.924,3.053h.065a25.623,25.623,0,0,1,.793-3.033l1.482-4.7H553.9l-3.348,9.35h-1.717l-1.587-4.462a31.1,31.1,0,0,1-.925-3.092h-.042a25.764,25.764,0,0,1-.945,3.109l-1.673,4.445h-1.718l-3.134-9.35Z" transform="translate(445.702 -356.649)" fill="#fff"/>
    <path id="Path_73" data-name="Path 73" d="M555.789,970.891c0-.985-.023-1.758-.088-2.532h1.676l.107,1.527h.043a3.939,3.939,0,0,1,3.435-1.738c1.436,0,3.669.771,3.669,3.979v5.583h-1.887v-5.39c0-1.507-.625-2.781-2.405-2.781a2.7,2.7,0,0,0-2.533,1.738,2.3,2.3,0,0,0-.129.794v5.639h-1.888Z" transform="translate(445.702 -356.649)" fill="#fff"/>
    <rect id="Rectangle_18" data-name="Rectangle 18" width="1.889" height="13.714" transform="translate(1013.404 607.346)" fill="#fff"/>
    <path id="Path_74" data-name="Path 74" d="M577.017,976.647c1.8,0,3.155-1.525,3.155-3.651,0-1.584-.88-3.574-3.111-3.574-2.212,0-3.178,1.855-3.178,3.632,0,2.048,1.287,3.593,3.113,3.593Zm-.064,1.275a4.691,4.691,0,0,1-4.978-4.81,4.821,4.821,0,0,1,5.149-4.964,4.656,4.656,0,0,1,5,4.791,4.84,4.84,0,0,1-5.15,4.983Z" transform="translate(445.702 -356.649)" fill="#fff"/>
    <path id="Path_75" data-name="Path 75" d="M589.985,972.939c-2.061-.038-4.4.29-4.4,2.106a1.58,1.58,0,0,0,1.76,1.623A2.615,2.615,0,0,0,589.9,975.1a1.522,1.522,0,0,0,.088-.541Zm1.845,2.531a14.423,14.423,0,0,0,.149,2.24h-1.694l-.172-1.177h-.063a4,4,0,0,1-3.178,1.389c-2.1,0-3.176-1.332-3.176-2.685,0-2.261,2.232-3.5,6.245-3.478v-.192c0-.772-.235-2.182-2.36-2.163a5.428,5.428,0,0,0-2.726.7l-.43-1.14a7.335,7.335,0,0,1,3.434-.811c3.2,0,3.971,1.951,3.971,3.825Z" transform="translate(445.702 -356.649)" fill="#fff"/>
    <path id="Path_76" data-name="Path 76" d="M601.94,972.166a2.827,2.827,0,0,0-.086-.734,2.732,2.732,0,0,0-2.725-1.95c-1.955,0-3.112,1.545-3.112,3.6,0,1.91,1.051,3.474,3.069,3.474a2.809,2.809,0,0,0,2.768-2.027,2.652,2.652,0,0,0,.086-.735ZM603.829,964v11.3c0,.829.023,1.775.086,2.414h-1.7l-.084-1.622h-.044a3.886,3.886,0,0,1-3.52,1.835,4.459,4.459,0,0,1-4.466-4.753,4.662,4.662,0,0,1,4.657-5.023,3.577,3.577,0,0,1,3.138,1.412h.04V964Z" transform="translate(445.702 -356.649)" fill="#fff"/>
    <path id="Path_77" data-name="Path 77" d="M615.807,976.647c1.8,0,3.155-1.525,3.155-3.651,0-1.584-.88-3.574-3.111-3.574-2.212,0-3.178,1.855-3.178,3.632,0,2.048,1.289,3.593,3.113,3.593Zm-.065,1.275a4.693,4.693,0,0,1-4.979-4.81,4.824,4.824,0,0,1,5.151-4.964,4.656,4.656,0,0,1,5,4.791,4.841,4.841,0,0,1-5.15,4.983Z" transform="translate(445.702 -356.649)" fill="#fff"/>
    <path id="Path_78" data-name="Path 78" d="M623.3,970.891c0-.985-.023-1.758-.086-2.532h1.674l.109,1.527h.041a3.94,3.94,0,0,1,3.435-1.738c1.438,0,3.669.771,3.669,3.979v5.583h-1.889v-5.39c0-1.507-.621-2.781-2.4-2.781a2.7,2.7,0,0,0-2.533,1.738,2.3,2.3,0,0,0-.128.794v5.639H623.3Z" transform="translate(445.702 -356.649)" fill="#fff"/>
    <path id="Path_79" data-name="Path 79" d="M642.04,966.122v2.239h2.7v1.295h-2.7v5.04c0,1.159.365,1.816,1.417,1.816a3.9,3.9,0,0,0,1.1-.115l.085,1.3a5.715,5.715,0,0,1-1.675.23,2.861,2.861,0,0,1-2.039-.714,3.39,3.39,0,0,1-.73-2.453v-5.1h-1.61v-1.295h1.61v-1.72Z" transform="translate(445.702 -356.649)" fill="#fff"/>
    <path id="Path_80" data-name="Path 80" d="M646.868,964h1.889v5.833h.044a3.217,3.217,0,0,1,1.352-1.2,4,4,0,0,1,1.932-.482c1.394,0,3.626.771,3.626,4v5.565h-1.888v-5.37c0-1.527-.623-2.781-2.4-2.781a2.713,2.713,0,0,0-2.533,1.7,1.869,1.869,0,0,0-.13.812v5.639h-1.889Z" transform="translate(445.702 -356.649)" fill="#fff"/>
    <path id="Path_81" data-name="Path 81" d="M665.373,972.108a2.507,2.507,0,0,0-2.6-2.762,2.939,2.939,0,0,0-2.9,2.762Zm-5.516,1.217c.044,2.3,1.652,3.246,3.541,3.246a7.915,7.915,0,0,0,2.879-.465l.342,1.2a9.3,9.3,0,0,1-3.477.6c-3.178,0-5.109-1.912-5.109-4.713a4.759,4.759,0,0,1,4.891-5.061c3.394,0,4.273,2.684,4.273,4.4a4.03,4.03,0,0,1-.063.812Z" transform="translate(445.702 -356.649)" fill="#fff"/>
  </g>
</svg>
