<svg xmlns="http://www.w3.org/2000/svg" width="340.631" height="108.434" viewBox="0 0 340.631 108.434">
  <g id="Group_2067" data-name="Group 2067" transform="translate(-220.273 -4933.566)">
    <g id="Group_1632" data-name="Group 1632" transform="translate(319.551 4938.477)">
      <path id="Path_1053" data-name="Path 1053" d="M1060.11,812.884a68.215,68.215,0,0,0-21.219-16.5,209.6,209.6,0,0,0-48.5-17.476,41.146,41.146,0,0,0-49.3,30.759l-3.93,16.961a41.141,41.141,0,0,0,30.752,49.315,65.3,65.3,0,0,0,27.438-.558,72.456,72.456,0,0,1,30.839-.335A29.883,29.883,0,0,0,1062,852.716l3.934-16.961A26.1,26.1,0,0,0,1060.11,812.884Zm.965,21.73a24.959,24.959,0,0,1-11.736,15.864,2.491,2.491,0,0,0-.889,3.408h0l-.007,0a2.492,2.492,0,0,0,3.394.9,29.9,29.9,0,0,0,5.51-4.124l-.219.939a24.893,24.893,0,0,1-29.842,18.609,76.594,76.594,0,0,0-32.8.274,61.262,61.262,0,0,1-25.483.615,36.158,36.158,0,0,1-27.449-41.055,41.121,41.121,0,0,0,30.284,28.945,65.308,65.308,0,0,0,27.438-.558,72.446,72.446,0,0,1,30.839-.335c.907.209,1.828.382,2.746.5a2.49,2.49,0,1,0,.669-4.934c-.763-.108-1.537-.245-2.286-.421a76.592,76.592,0,0,0-32.8.273,61.279,61.279,0,0,1-25.487.616,36.119,36.119,0,0,1,16.285-70.379l.032.007a204.439,204.439,0,0,1,47.246,17C1055.636,811.092,1063.889,822.482,1061.074,834.614Z" transform="translate(-936.093 -777.853)" fill="#3478f5"/>
      <path id="Path_1054" data-name="Path 1054" d="M967.252,798.79h0l-.065.014a2.505,2.505,0,1,0,.065-.014Z" transform="translate(-860.221 -723.585)" fill="#3478f5"/>
      <path id="Path_1055" data-name="Path 1055" d="M956.181,786.989l.122.029.194.043a2.49,2.49,0,0,0,1.314-4.8l0,.011-.126-.032a2.492,2.492,0,0,0-1.508,4.75Z" transform="translate(-888.403 -766.757)" fill="#3478f5"/>
      <path id="Path_1056" data-name="Path 1056" d="M1033.142,803.525a106.609,106.609,0,0,0-17.462-9.72c-2.8-1.253-5.751-2.483-8.778-3.646a2.492,2.492,0,0,0-1.8,4.65c2.94,1.13,5.809,2.318,8.537,3.541,15.907,7.133,26.019,15.248,27.74,22.27a9.683,9.683,0,0,1-.018,4.574,14.922,14.922,0,0,1-17.886,11.156,76.164,76.164,0,0,0-24.972-1.526c-3.75.363-7.453.986-11.034,1.58-2.365.4-4.816.806-7.231,1.134a40.1,40.1,0,0,1-15.05-.3,26.151,26.151,0,0,1,11.815-50.949c2.731.633,5.51,1.332,8.23,2.069l1.386.382a2.49,2.49,0,1,0,1.339-4.8l-1.418-.388c-2.778-.756-5.614-1.468-8.41-2.116a31.133,31.133,0,1,0-14.1,60.648l.039.011a44.645,44.645,0,0,0,16.828.378c2.49-.335,4.977-.752,7.389-1.166,3.5-.587,7.115-1.191,10.7-1.537a71.134,71.134,0,0,1,23.364,1.421,19.912,19.912,0,0,0,23.864-14.885,14.553,14.553,0,0,0,.014-6.874C1044.935,814.12,1040.523,808.75,1033.142,803.525Z" transform="translate(-926.086 -770.664)" fill="#3478f5"/>
      <path id="Path_1057" data-name="Path 1057" d="M959.972,783.749a11.506,11.506,0,1,0,9.714,14A12.094,12.094,0,0,0,959.972,783.749Zm4.862,12.88a7.148,7.148,0,0,1-8.911,4.578h0a6.563,6.563,0,1,1,8.911-4.578Z" transform="translate(-907.828 -762.789)" fill="#3478f5"/>
    </g>
    <path id="Path_1058" data-name="Path 1058" d="M939.943,966.8v.435a10.813,10.813,0,0,0,3.451,7.917,8.439,8.439,0,0,0,1.238,9.552v7.723a14.981,14.981,0,0,0,14.968,14.964h70.278a14.98,14.98,0,0,0,14.964-14.964v-6.751a8.451,8.451,0,0,0,1.9-11.192,10.788,10.788,0,0,0,2.793-7.248V966.8a10.853,10.853,0,0,0-7.241-10.214v-5.355a9.276,9.276,0,0,0,1.939-.99,8.441,8.441,0,0,0,2.239-12.024,6.918,6.918,0,0,0,.429-3.962A39.933,39.933,0,0,0,1029.176,909a64.153,64.153,0,0,0-68.886-.007,39.956,39.956,0,0,0-17.721,25.264,6.905,6.905,0,0,0,.892,4.88,8.276,8.276,0,0,0-1.015,4.013,8.465,8.465,0,0,0,3.837,7.1,9.837,9.837,0,0,0,.9.529v5.816A10.852,10.852,0,0,0,939.943,966.8Zm89.928,36.309H959.6a10.7,10.7,0,0,1-10.681-10.681V987.35a9.261,9.261,0,0,0,5.459-.126l.111-.04c.166-.058.317-.119.489-.184a6.625,6.625,0,0,1,2.559-.468,7.564,7.564,0,0,1,5.056,1.828,12.148,12.148,0,0,0,15.047,0,7.9,7.9,0,0,1,10.109,0,12.152,12.152,0,0,0,15.029,0,7.9,7.9,0,0,1,10.105,0,12.151,12.151,0,0,0,15.029,0,7.564,7.564,0,0,1,5.056-1.828,7.036,7.036,0,0,1,1.893.244c.587.162,1.137.421,1.728.583a9.215,9.215,0,0,0,3.952.223v4.851l.014-.007A10.7,10.7,0,0,1,1029.871,1003.109Zm10.6-19.912a5.084,5.084,0,0,1-3.314-.18,10.82,10.82,0,0,0-4.157-.785,11.72,11.72,0,0,0-7.521,2.613,7.9,7.9,0,0,1-10.109,0,12.152,12.152,0,0,0-15.029,0,7.9,7.9,0,0,1-10.109,0,12.152,12.152,0,0,0-15.029,0,7.9,7.9,0,0,1-10.109,0,11.728,11.728,0,0,0-7.558-2.6,10.84,10.84,0,0,0-4.16.788,5.041,5.041,0,0,1-4.344-.245,4.392,4.392,0,0,1-2.239-3.12,4.151,4.151,0,0,1,0-1.195c-.011-.119.187-1.094.292-1.054l-.007,0a10.851,10.851,0,0,0,3.689.637h39.429l3.969,3.969a2.16,2.16,0,0,0,3.02,0l4.013-3.973H1038.7a10.934,10.934,0,0,0,3.552-.6,5.5,5.5,0,0,0,.709-.284c.072-.036.177-.119.263-.115s.151.162.194.256a4.187,4.187,0,0,1,.364,1.634A4.451,4.451,0,0,1,1040.47,983.2Zm-89.014-27.218v-4.157l.435-.029a10.358,10.358,0,0,0,3.221-.738,7.422,7.422,0,0,1,3.282-.378,7.742,7.742,0,0,1,4.189,1.792,12.157,12.157,0,0,0,15.032,0,7.9,7.9,0,0,1,10.109,0,12.152,12.152,0,0,0,15.029,0,7.9,7.9,0,0,1,10.109,0,12.151,12.151,0,0,0,15.029,0,7.569,7.569,0,0,1,5.11-1.828,7,7,0,0,1,2.559.464,9.775,9.775,0,0,0,2.472.641v4.232Zm23.468,6.805-4.6,4.614-7.133-7.133,9.195-.011.338.338Zm38.151-2.53L998.784,974.4l-3.081,3.081-3.106-3.074-13.132-13.132-1.018-1.022Zm32.178,6.547v.435a6.559,6.559,0,0,1-6.547,6.557H1005.5l13.651-13.528h19.538A6.558,6.558,0,0,1,1045.253,966.8Zm-98.479-31.757a35.721,35.721,0,0,1,15.918-22.511,59.929,59.929,0,0,1,64.1,0,35.73,35.73,0,0,1,15.918,22.511,2.694,2.694,0,0,1-2.2,3.106,3.244,3.244,0,0,1-.417.039h-90.7a2.691,2.691,0,0,1-2.653-2.724A2.773,2.773,0,0,1,946.773,935.044Zm-.029,8.1a4.053,4.053,0,0,1,.141-1.141,7,7,0,0,0,2.5.464h90.695a6.986,6.986,0,0,0,3.4-.885,4.154,4.154,0,0,1,.317,1.562,4.221,4.221,0,0,1-1.94,3.541,5.036,5.036,0,0,1-4.311.6c-.713-.227-1.386-.518-2.124-.677a12.136,12.136,0,0,0-9.947,2.368,7.9,7.9,0,0,1-10.106,0,12.151,12.151,0,0,0-15.029,0,7.9,7.9,0,0,1-10.109,0,12.152,12.152,0,0,0-15.029,0,7.9,7.9,0,0,1-10.109,0,11.726,11.726,0,0,0-7.565-2.613,10.9,10.9,0,0,0-4.16.781,5.042,5.042,0,0,1-4.689-.457A4.222,4.222,0,0,1,946.745,943.145Zm4.016,17.109h6.378l11.674,11.671a2.137,2.137,0,0,0,3.023,0l6.111-6.111,7.968,7.979H950.772a6.559,6.559,0,0,1-6.547-6.547l-.007-.446A6.551,6.551,0,0,1,950.761,960.254Z" transform="translate(-488.632 4034.608)" fill="#3478f5"/>
    <g id="Group_1633" data-name="Group 1633" transform="translate(220.272 5041.055) rotate(-90)">
      <path id="Path_1059" data-name="Path 1059" d="M18.75,9.375A9.375,9.375,0,1,0,9.375,18.75,9.373,9.373,0,0,0,18.75,9.375Z" transform="translate(29.051 38.634)" fill="#3478f5"/>
      <path id="Path_1060" data-name="Path 1060" d="M9.375,0A9.375,9.375,0,1,0,18.75,9.375,9.374,9.374,0,0,0,9.375,0Z" transform="translate(18.992 66.579)" fill="#3478f5"/>
      <ellipse id="Ellipse_334" data-name="Ellipse 334" cx="7.257" cy="7.257" rx="7.257" ry="7.257" transform="translate(45.016 60.315)" fill="#3478f5"/>
      <path id="Path_1061" data-name="Path 1061" d="M101.345,55.38a15.523,15.523,0,0,0-14.618-20.8c-.094,0-.184.018-.277.022A15.535,15.535,0,0,0,71.283,15.659a15.252,15.252,0,0,0-1.771.133A15.474,15.474,0,0,0,45.13,6.755,12.567,12.567,0,1,0,27.316,23.209L.649,91.159a9.03,9.03,0,0,0,1.994,9.749,9.033,9.033,0,0,0,6.464,2.742,9.263,9.263,0,0,0,3.246-.6L85.826,75.562a12.671,12.671,0,0,0,7.8,2.732,12.74,12.74,0,0,0,7.716-22.914ZM10.715,98.674a4.361,4.361,0,0,1-4.74-1.047A4.356,4.356,0,0,1,5,92.869l26.66-67.932A11.984,11.984,0,0,0,39.6,23.8,15.226,15.226,0,0,0,56.154,34.635,15.513,15.513,0,0,0,71.283,46.749c.1,0,.2-.018.3-.022A15.365,15.365,0,0,0,80.968,64.51c-.025.335-.122.662-.122,1a12.609,12.609,0,0,0,1.72,6.284ZM93.629,73.611a8.1,8.1,0,0,1-7.856-10.106,2.343,2.343,0,0,0-1.691-2.843c-.051-.011-.1,0-.147-.007s-.076-.05-.122-.061a10.869,10.869,0,0,1-6.643-15.637,2.337,2.337,0,0,0-2.735-3.351v0a10.873,10.873,0,0,1-14-9.825l-.014-.572a2.34,2.34,0,0,0-2.339-2.343,2.3,2.3,0,0,0-1.9,1.058,11.026,11.026,0,0,1-1.764.155,10.909,10.909,0,0,1-10.833-10c0-.033-.021-.054-.025-.086a2.3,2.3,0,0,0-.651-1.814,2.335,2.335,0,0,0-3.311,0,7.922,7.922,0,1,1,2-7.716c-.079.115-.169.216-.245.331a2.339,2.339,0,0,0,3.93,2.537,10.836,10.836,0,0,1,19.732,3.678,15.15,15.15,0,0,0-2.422,1.313,2.339,2.339,0,1,0,2.623,3.872A10.835,10.835,0,0,1,81.17,35.647a15.477,15.477,0,0,0-3.135,1.591,2.341,2.341,0,0,0,2.62,3.88A10.782,10.782,0,0,1,97.08,53.253a12.708,12.708,0,0,0-3.451-.533,2.341,2.341,0,0,0,0,4.682,8.1,8.1,0,1,1,0,16.209Z" fill="#3478f5"/>
    </g>
  </g>
</svg>
