<svg xmlns="http://www.w3.org/2000/svg" width="208.567" height="108.47" viewBox="0 0 208.567 108.47">
  <g id="Group_2067" data-name="Group 2067" transform="translate(-860.21 -4933.53)">
    <line id="Line_47" data-name="Line 47" transform="translate(900.796 4998.785)" fill="none" stroke="#fff" stroke-miterlimit="10" stroke-width="1.5"/>
    <path id="Path_1050" data-name="Path 1050" d="M500.431,349.006h-4.174v-8.6c0-4.93-4.823-8.961-10.8-8.961-5.938,0-10.761,4.031-10.761,8.961v8.6H447.024v-8.6c0-4.93-4.822-8.961-10.8-8.961s-10.8,4.031-10.8,8.961v8.6h-4.175a9.546,9.546,0,0,0-9.537,9.5v71.905a9.523,9.523,0,0,0,9.537,9.5h79.175a9.492,9.492,0,0,0,9.5-9.5V358.507A9.515,9.515,0,0,0,500.431,349.006Zm-21.053-8.6c0-2.3,2.807-4.283,6.082-4.283,3.311,0,6.118,1.979,6.118,4.283V358c0,2.3-2.807,4.283-6.118,4.283-3.275,0-6.082-1.979-6.082-4.283V340.4Zm-49.268,0c0-2.3,2.807-4.283,6.118-4.283s6.118,1.979,6.118,4.283V358c0,2.339-2.807,4.283-6.118,4.283s-6.118-1.943-6.118-4.283V340.4Zm-13.712,18.1a4.853,4.853,0,0,1,4.858-4.822h4.175V358c0,4.966,4.823,8.961,10.8,8.961s10.8-3.995,10.8-8.961v-4.319H474.7V358c0,4.93,4.823,8.961,10.761,8.961,5.974,0,10.8-4.031,10.8-8.961v-4.319h4.174a4.823,4.823,0,0,1,4.823,4.822V380.5H416.4Zm88.856,71.905a4.823,4.823,0,0,1-4.823,4.822H421.256a4.854,4.854,0,0,1-4.858-4.822V385.175h88.856Z" transform="translate(448.491 4602.086)" fill="#3478f5"/>
    <g id="Group_1630" data-name="Group 1630" transform="translate(962.481 4939.119)">
      <path id="Path_1051" data-name="Path 1051" d="M465.428,922.7A48.669,48.669,0,0,0,416.9,969.005h-6.784a2.343,2.343,0,0,0-2.026,3.513l14.467,25.059a2.34,2.34,0,0,0,4.052,0l14.471-25.059a2.343,2.343,0,0,0-2.026-3.513h-6.939a33.266,33.266,0,0,1,8.108-19.552l1.879,1.875a2.34,2.34,0,1,0,3.307-3.311l-1.875-1.875a33.237,33.237,0,0,1,19.553-8.1V940.7a2.339,2.339,0,1,0,4.679,0v-2.659a33.248,33.248,0,0,1,19.556,8.1l-1.875,1.875a2.34,2.34,0,1,0,3.307,3.311l1.875-1.875a33.245,33.245,0,0,1,8.112,19.552h-12.97a2.341,2.341,0,0,0,0,4.682h12.97a33.262,33.262,0,0,1-8.108,19.552l-1.878-1.878a2.34,2.34,0,1,0-3.307,3.311l1.875,1.875a33.251,33.251,0,0,1-19.556,8.108V991.689a2.339,2.339,0,1,0-4.679,0v12.97a33.084,33.084,0,0,1-19.567-8.1l1.889-1.889a2.34,2.34,0,1,0-3.307-3.311l-3.62,3.62a2.326,2.326,0,0,0-.1,3.163l-.025.025c.036.036.076.065.112.1l.014.022.036.025a38.051,38.051,0,0,0,53.756.043c.032-.029.072-.04.1-.068s.04-.072.068-.1a38.03,38.03,0,0,0,0-53.684,1.2,1.2,0,0,0-.072-.112c-.032-.032-.076-.04-.108-.072a38.03,38.03,0,0,0-53.688.007c-.029.029-.068.036-.1.065s-.039.068-.065.1a37.98,37.98,0,0,0-11.1,26.851,2.339,2.339,0,0,0,2.339,2.339H435l-10.419,18.041L414.17,973.688h4.952a2.339,2.339,0,0,0,2.339-2.339,43.967,43.967,0,1,1,43.967,43.964,2.339,2.339,0,0,0,0,4.679,48.646,48.646,0,0,0,0-97.292Z" transform="translate(-407.778 -922.699)" fill="#3478f5"/>
      <path id="Path_1052" data-name="Path 1052" d="M425.486,929.693a2.34,2.34,0,0,0-2.339,2.343v21.608a1.609,1.609,0,0,0,.936,1.457l11.513,5.272a2.339,2.339,0,1,0,1.947-4.254l-9.717-4.448V932.036A2.34,2.34,0,0,0,425.486,929.693Z" transform="translate(-367.836 -904.522)" fill="#3478f5"/>
    </g>
  </g>
</svg>
