<svg xmlns="http://www.w3.org/2000/svg" width="171.557" height="164.674" viewBox="0 0 171.557 164.674">
  <g id="Group_2070" data-name="Group 2070" transform="translate(-881 -5292.326)">
    <g id="Group_1635" data-name="Group 1635" transform="translate(881 5292.326)">
      <path id="Path_1062" data-name="Path 1062" d="M1095.869,782.987l2.3-1.331a9.8,9.8,0,0,0,3.455-13.388l-12.02-20.334a9.778,9.778,0,0,0-13.424-3.455l-2.267,1.332-4.175-7.054a13.548,13.548,0,0,0-18.966-17.778,13.5,13.5,0,0,0-4.93,5.038,21.369,21.369,0,0,0-22.457-.468,20.852,20.852,0,0,0-6.945,6.658,10.9,10.9,0,0,0-5.039-.216v-.036a21.353,21.353,0,0,0-35.593-7.126,12.991,12.991,0,0,0-6.01-3.707A13.505,13.505,0,0,0,955.693,742.9l-2.375,7.882-2.519-.756a9.811,9.811,0,0,0-12.2,6.586l-6.766,22.637a9.773,9.773,0,0,0,6.586,12.164l2.519.756-1.007,3.419a15.462,15.462,0,0,0,10.4,19.29l29.871,8.961a15.52,15.52,0,0,0,19.29-10.4l10.832-36.061a12.61,12.61,0,0,0,10.509.9l23.32,39.443a15.508,15.508,0,0,0,21.234,5.47l26.848-15.871a15.507,15.507,0,0,0,5.47-21.233Zm-70.106-53.407a16.571,16.571,0,0,1,19.038,1.475,8.148,8.148,0,0,1,1.044.9,16.93,16.93,0,0,1,2.771,3.527,2.349,2.349,0,0,0,3.2.828,2.392,2.392,0,0,0,.828-3.239,19.761,19.761,0,0,0-3.1-3.995,8.76,8.76,0,0,1,3.6-4.067,8.85,8.85,0,0,1,11.984,12.344v.036a8.806,8.806,0,0,1-2.987,2.879,8.962,8.962,0,0,1-6.37,1.043c-.036-.036-.036-.036-.072-.036h-.036a2.333,2.333,0,0,0-.864-.036,3.633,3.633,0,0,0-.36.144,2.3,2.3,0,0,0-.468.144l-27.423,16.2a12.471,12.471,0,0,0-2.591-8.458,2.108,2.108,0,0,0,.108-1.619c.144-.324.252-.648.36-.972a11.615,11.615,0,0,0-3.815-12.344A16.692,16.692,0,0,1,1025.763,729.581Zm-68.306,1.979a8.885,8.885,0,0,1,11.013-5.974,8.7,8.7,0,0,1,4.463,3.095,19.926,19.926,0,0,0-2.016,4.642,2.329,2.329,0,1,0,4.463,1.332,15.53,15.53,0,0,1,1.872-4.067,8.152,8.152,0,0,1,.792-1.152,16.661,16.661,0,0,1,28.971,4.211v.036a11.568,11.568,0,0,0-4.787,6.334,2.351,2.351,0,0,0,4.5,1.368,6.807,6.807,0,0,1,7.486-4.859,5.756,5.756,0,0,1,1.08.216,6.608,6.608,0,0,1,3.131,1.979,6.882,6.882,0,0,1,1.8,4.643,7.521,7.521,0,0,1-.288,1.979c-.036.144-.108.252-.144.4a12.813,12.813,0,0,0-2.2-.9,12.59,12.59,0,0,0-6.226-.252,2.344,2.344,0,0,0-1.8,2.771.311.311,0,0,0,.108.216,2.251,2.251,0,0,0,2.663,1.584,7.65,7.65,0,0,1,3.923.18,7.964,7.964,0,0,1-4.57,15.259,7.6,7.6,0,0,1-2.519-1.3,7.963,7.963,0,0,1-2.843-8.637,2.267,2.267,0,0,0,.108-.684,2.342,2.342,0,0,0-1.655-2.231l-2.3-.684-30.842-9.213a2.108,2.108,0,0,0-.468-.072c-.144,0-.252-.036-.4-.036a2.216,2.216,0,0,0-.828.252h-.036c-.036.036-.036.036-.072.036a8.872,8.872,0,0,1-6.442.54,9.334,9.334,0,0,1-3.563-2.087.035.035,0,0,1-.036-.036A8.847,8.847,0,0,1,957.457,731.56Zm-17.706,55.35a5.108,5.108,0,0,1-3.455-6.334l6.8-22.637a5.1,5.1,0,0,1,6.37-3.419l2.519.756-9.717,32.39ZM995.029,812.1a10.837,10.837,0,0,1-13.46,7.234l-29.907-8.925a10.88,10.88,0,0,1-7.27-13.5l1.691-5.578c0-.036.036-.036.036-.072l11.049-36.888V754.3l2.447-8.241h.036a12.044,12.044,0,0,0,2.411.971,13.215,13.215,0,0,0,9.033-.467l30.3,9.069a12.646,12.646,0,0,0,2.591,9.069,12.155,12.155,0,0,0,4.175,3.455l-1.728,5.794Zm25.552-38.868a7.924,7.924,0,0,1-8.889-.5l.972-3.2a12.749,12.749,0,0,0,11.552-5.146A7.9,7.9,0,0,1,1020.581,773.235Zm69.278,30.05-26.847,15.871a10.84,10.84,0,0,1-14.827-3.815L1024.864,775.9a12.644,12.644,0,0,0,3.527-13.819l27.243-16.087a13.456,13.456,0,0,0,8.889-1.692,11.946,11.946,0,0,0,2.123-1.547l4.391,7.414a.111.111,0,0,0,.036.072l19.578,33.146.036.036,2.987,5.038A10.839,10.839,0,0,1,1089.859,803.285Zm3.635-24.328-17.2-29.115,2.267-1.332a5.15,5.15,0,0,1,7.018,1.8l12.02,20.334a5.087,5.087,0,0,1-1.835,6.982Z" transform="translate(-931.421 -660.669)" fill="#3478f5"/>
      <path id="Path_1063" data-name="Path 1063" d="M968.362,732.511a2.341,2.341,0,0,0-4.031,2.382l18.458,31.231a2.341,2.341,0,0,0,4.031-2.382Z" transform="translate(-846.741 -626.136)" fill="#3478f5"/>
      <path id="Path_1064" data-name="Path 1064" d="M971.8,730.478a2.341,2.341,0,0,0-4.031,2.382l18.458,31.227a2.34,2.34,0,0,0,4.031-2.379Z" transform="translate(-837.801 -631.42)" fill="#3478f5"/>
      <path id="Path_1065" data-name="Path 1065" d="M964.936,734.536a2.339,2.339,0,1,0-4.027,2.379l18.459,31.231a2.34,2.34,0,1,0,4.027-2.382Z" transform="translate(-855.637 -620.877)" fill="#3478f5"/>
      <path id="Path_1066" data-name="Path 1066" d="M955.054,731.128a2.337,2.337,0,0,0-2.912,1.573l-10.408,34.75a2.34,2.34,0,1,0,4.484,1.342l10.408-34.751A2.339,2.339,0,0,0,955.054,731.128Z" transform="translate(-904.877 -626.999)" fill="#3478f5"/>
      <path id="Path_1067" data-name="Path 1067" d="M951.226,729.983a2.337,2.337,0,0,0-2.911,1.569l-10.408,34.754a2.34,2.34,0,0,0,4.484,1.342L952.8,732.894A2.34,2.34,0,0,0,951.226,729.983Z" transform="translate(-914.826 -629.977)" fill="#3478f5"/>
      <path id="Path_1068" data-name="Path 1068" d="M958.865,732.269a2.34,2.34,0,0,0-2.915,1.569l-10.4,34.754a2.34,2.34,0,0,0,4.484,1.342l10.4-34.754A2.338,2.338,0,0,0,958.865,732.269Z" transform="translate(-894.977 -624.034)" fill="#3478f5"/>
      <path id="Path_1069" data-name="Path 1069" d="M956.064,750.934a2.339,2.339,0,0,0,2.335-2.343V704.462a2.337,2.337,0,1,0-4.675,0v44.129A2.34,2.34,0,0,0,956.064,750.934Z" transform="translate(-873.458 -702.123)" fill="#3478f5"/>
      <path id="Path_1070" data-name="Path 1070" d="M957.808,737.5a2.341,2.341,0,1,0,4.254-1.954L949.65,708.542a2.339,2.339,0,1,0-4.25,1.954Z" transform="translate(-895.651 -688.979)" fill="#3478f5"/>
      <path id="Path_1071" data-name="Path 1071" d="M960.445,738.654a2.365,2.365,0,0,0,.975.212,2.34,2.34,0,0,0,2.13-1.364L975.959,710.5a2.341,2.341,0,1,0-4.254-1.954L959.3,735.548A2.344,2.344,0,0,0,960.445,738.654Z" transform="translate(-859.535 -688.979)" fill="#3478f5"/>
    </g>
  </g>
</svg>
