<svg xmlns="http://www.w3.org/2000/svg" width="226.43" height="109.232" viewBox="0 0 226.43 109.232">
  <g id="Group_2071" data-name="Group 2071" transform="translate(-1423 -5347.768)">
    <g id="QOsJlM.tif" transform="translate(1541 5347.768)">
      <g id="Group_1637" data-name="Group 1637" transform="translate(0 0)">
        <path id="Path_1075" data-name="Path 1075" d="M1574.763,330.339c-.36-2.447-.576-4.93-1.08-7.306-5-24.184-27.135-42.323-51.788-42.611a55.139,55.139,0,0,0-28.035,7.234,53.75,53.75,0,0,0-26.019,58.338,55.793,55.793,0,0,0,44.014,42.035c1.871.36,3.815.576,5.723.828h6.55c1.943-.252,3.851-.468,5.758-.828a54.055,54.055,0,0,0,32.858-19.47,53.477,53.477,0,0,0,11.732-26.776c.18-1.3.324-2.627.5-3.959v-6.586C1574.907,330.95,1574.834,330.626,1574.763,330.339Zm-54.2,54.271c-26.7-.072-49.844-23.429-49.772-50.168.073-27.171,22.889-49.844,50.06-49.772,27.208.036,49.917,22.853,49.88,50.024A50.155,50.155,0,0,1,1520.564,384.609Z" transform="translate(-1466.549 -280.419)" fill="#3478f5"/>
        <path id="Path_1076" data-name="Path 1076" d="M1557.068,317.232c-5.722-24.544-32.57-41.315-59.2-31.058a65.516,65.516,0,0,0-7.449,3.743,2.009,2.009,0,0,0-.864,2.951,2.159,2.159,0,0,0,3.059.648c.252-.144.468-.288.72-.432,11.7-6.658,23.788-7.63,36.24-2.483a38.31,38.31,0,0,1,11.3,7.27,8.734,8.734,0,0,0-1.043.756c-3.347,3.311-6.73,6.622-10,10.041a6.751,6.751,0,0,1-4.858,2.519,16.948,16.948,0,0,0-2.843.648c.036-.576.108-1.044.144-1.511.324-6.334-2.915-11.013-7.125-15.187a1.957,1.957,0,0,0-2.879.144,24.665,24.665,0,0,0-6.19,9.213,15.824,15.824,0,0,0-.612,7.342c-.36-.072-.576-.144-.828-.18-2.591-.324-5.218-.756-7.845-.972-1.475-.144-2.267.792-2.267,2.267a24.838,24.838,0,0,0,1.115,8.133c.5,1.44,1.187,2.843,1.763,4.283a.667.667,0,0,1-.252.072c-2.124.144-2.663.756-2.627,2.843.071,4.355.828,8.529,3.239,12.164-4.678,4.678-9.285,9.285-13.964,14a40.282,40.282,0,0,1-4.067-48.369,3.211,3.211,0,0,0,.468-1.8,1.809,1.809,0,0,0-1.655-1.655,2.2,2.2,0,0,0-2.376,1.188,43.342,43.342,0,0,0-6.334,30.806c2.051,12.848,8.746,22.853,19.506,30.086a43.546,43.546,0,0,0,55.567-5.614C1556.348,347.355,1560.811,333.319,1557.068,317.232ZM1528.673,315c-.288,7.918-4.679,13.208-12.632,12.668C1515.429,319.428,1521.079,315.289,1528.673,315Zm0,14.863c-.288,7.99-4.787,13.136-12.7,12.632A11.671,11.671,0,0,1,1528.673,329.864Zm-14.9-29.871c5.542,5.794,5.83,12.668,0,17.922C1508.231,312.986,1507.943,306.112,1513.774,299.994Zm-2.231,27.675c-7.989.612-12.344-4.75-12.7-12.668C1506.54,315.253,1512.118,319.608,1511.542,327.669Zm.036,14.863c-8.025.54-12.489-4.966-12.668-12.668A11.637,11.637,0,0,1,1511.578,342.532Zm31.13,12.956c-16.087,16.231-40.2,16.231-55.566,2.231,4.57-4.607,9.177-9.177,13.747-13.712a43.231,43.231,0,0,0,5.039,2.087,39.489,39.489,0,0,0,5.722.972V355.7c.036,1.584.792,2.483,2.123,2.483,1.332.036,2.123-.9,2.123-2.447v-8.745a46.857,46.857,0,0,0,4.786-.612c6.586-1.476,10.293-5.83,11.7-12.236a37.961,37.961,0,0,0,.648-6.082c.108-1.836-.612-2.519-2.484-2.627-.144,0-.252-.036-.576-.072a21.235,21.235,0,0,0,3.023-12.056,4,4,0,0,1,1.476-3.383c2.842-2.735,5.614-5.578,8.421-8.349.252-.288.54-.54.792-.792A39.84,39.84,0,0,1,1542.708,355.488Z" transform="translate(-1459.579 -273.431)" fill="#3478f5"/>
        <path id="Path_1077" data-name="Path 1077" d="M1476.978,288.685a2.145,2.145,0,0,1-2.159,2.051,2.09,2.09,0,0,1-2.051-2.123,2.113,2.113,0,0,1,2.051-2.123A2.271,2.271,0,0,1,1476.978,288.685Z" transform="translate(-1450.387 -264.642)" fill="#3478f5"/>
      </g>
    </g>
    <g id="Group_1638" data-name="Group 1638" transform="translate(1423 5347.768)">
      <path id="Path_1078" data-name="Path 1078" d="M1522.348,336.715a54.616,54.616,0,1,0,54.617,54.616A54.682,54.682,0,0,0,1522.348,336.715Zm0,104.558a49.939,49.939,0,1,1,49.938-49.941A50,50,0,0,1,1522.348,441.273Z" transform="translate(-1467.728 -336.715)" fill="#3478f5"/>
      <path id="Path_1079" data-name="Path 1079" d="M1547.8,344.523a2.346,2.346,0,0,0-2.929-1.407c-3.062,1.015-30.079,10.242-35.154,21.626a23.522,23.522,0,0,0-1.666,5.485,18.525,18.525,0,0,0-3.441-3.347c-7.928-5.758-29.654-1.49-32.1-.986a2.338,2.338,0,0,0-1.835,2.681c.388,2.329,4.067,22.9,11.93,28.607a18.68,18.68,0,0,0,23.9-1.623c3.945,6.33,5.931,13.525,5.935,17.886a38.3,38.3,0,0,1-19.2-6.492,2.339,2.339,0,1,0-2.62,3.876,43.217,43.217,0,0,0,53.587-4.189,2.338,2.338,0,1,0-3.181-3.426,38.382,38.382,0,0,1-23.9,10.21,49.594,49.594,0,0,1,3.538-18c.356.183.666.425,1.036.59a23.68,23.68,0,0,0,31.271-11.981C1558.1,372.529,1548.218,345.66,1547.8,344.523ZM1485.353,393.4c-4.772-3.466-8.248-16.447-9.649-23.349,8.691-1.533,21.824-2.526,26.153.619a14.013,14.013,0,0,1,4.585,17.04,29.178,29.178,0,0,0-9.936-7.514,2.341,2.341,0,0,0-1.9,4.279,25.329,25.329,0,0,1,9.119,7.209A14.029,14.029,0,0,1,1485.353,393.4Zm28.759,6.931a46.775,46.775,0,0,0-4.564-8.652,18.541,18.541,0,0,0,1.954-4.391,23.3,23.3,0,0,0,5.1,5.532A58.321,58.321,0,0,0,1514.111,400.327Zm34.585-18.2a19,19,0,0,1-25.1,9.612c-.385-.169-.716-.421-1.087-.615a63.188,63.188,0,0,1,11.523-16.544,2.337,2.337,0,1,0-3.213-3.394,65.572,65.572,0,0,0-12.236,17.188,18.762,18.762,0,0,1-4.6-21.73c3.3-7.388,21.248-15.122,30.191-18.336C1547.1,356.867,1552,374.717,1548.7,382.128Z" transform="translate(-1460.161 -320.385)" fill="#3478f5"/>
      <path id="Path_1080" data-name="Path 1080" d="M1475.174,362.579a2.341,2.341,0,0,0,1.943-1.029,38.563,38.563,0,0,1,48.588-13.219,2.339,2.339,0,1,0,2.023-4.218,43.237,43.237,0,0,0-54.487,14.82,2.333,2.333,0,0,0,1.933,3.646Z" transform="translate(-1454.448 -328.476)" fill="#3478f5"/>
      <path id="Path_1081" data-name="Path 1081" d="M1474,351.119a2.145,2.145,0,0,0,2.159-2.051,2.271,2.271,0,0,0-2.159-2.2,2.113,2.113,0,0,0-2.051,2.123A2.09,2.09,0,0,0,1474,351.119Z" transform="translate(-1456.753 -310.318)" fill="#3478f5"/>
    </g>
  </g>
</svg>
