<svg xmlns="http://www.w3.org/2000/svg" width="172.601" height="110.557" viewBox="0 0 172.601 110.557">
  <g id="Group_2068" data-name="Group 2068" transform="translate(-1449 -4931.443)">
    <g id="Group_1636" data-name="Group 1636" transform="translate(1449 4931.443)">
      <path id="Path_1072" data-name="Path 1072" d="M1517.175,269.167a66.807,66.807,0,0,0-9.109-2.508,39.506,39.506,0,0,1-7.079-1.994,3.1,3.1,0,0,1-2.2-2.886,3.608,3.608,0,0,1,1.857-3.127q1.857-1.2,5.912-1.2a26.087,26.087,0,0,1,10.084,2.152,3.589,3.589,0,0,0,4.7-1.922l1.443-3.487a3.6,3.6,0,0,0-1.914-4.718,32.256,32.256,0,0,0-3.21-1.1,40.709,40.709,0,0,0-7.525-1.375v-3.822a3.6,3.6,0,0,0-3.6-3.6h-1.051a3.6,3.6,0,0,0-3.6,3.6v3.959q-8.043.966-12.3,5.193a13.762,13.762,0,0,0-4.261,10.138,11.611,11.611,0,0,0,2.609,7.975,15.229,15.229,0,0,0,6.259,4.293,68.272,68.272,0,0,0,9.073,2.512,41.054,41.054,0,0,1,7.184,2.1,3.24,3.24,0,0,1,2.231,3.055q0,3.919-7.834,3.919a28.5,28.5,0,0,1-8.386-1.306,32.27,32.27,0,0,1-4.189-1.6,3.63,3.63,0,0,0-4.9,1.745l-1.54,3.462a3.573,3.573,0,0,0,1.656,4.686,34.308,34.308,0,0,0,4.642,1.778,43.342,43.342,0,0,0,9.764,1.749v3.757a3.6,3.6,0,0,0,3.6,3.6h1.051a3.6,3.6,0,0,0,3.6-3.6v-4.031q7.768-1.171,11.858-5.33a13.588,13.588,0,0,0,4.088-9.861,11.383,11.383,0,0,0-2.645-7.939A15.77,15.77,0,0,0,1517.175,269.167Z" transform="translate(-1387.519 -217.311)" fill="#3478f5"/>
      <path id="Path_1073" data-name="Path 1073" d="M1575.463,233.39a55.369,55.369,0,0,0-53.335,40.775,38.48,38.48,0,0,0-25.048-9.177,38.958,38.958,0,1,0,34.441,57.186,55.27,55.27,0,1,0,43.942-88.784Zm-44.986,78.383a33.341,33.341,0,0,1-2.015,5.974,34.329,34.329,0,1,1-7.486-38.328,32.709,32.709,0,0,1,4.1,4.786,34.077,34.077,0,0,1,6.3,19.758A34.6,34.6,0,0,1,1530.477,311.773Zm44.986,27.5a50.641,50.641,0,0,1-41.747-22.025,38.776,38.776,0,0,0-7.7-39.3,50.6,50.6,0,1,1,49.449,61.325Z" transform="translate(-1458.14 -233.39)" fill="#3478f5"/>
      <path id="Path_1074" data-name="Path 1074" d="M1488.156,268.1a48.77,48.77,0,0,0-6.672-1.839,28.952,28.952,0,0,1-5.186-1.458,2.27,2.27,0,0,1-1.612-2.116,2.648,2.648,0,0,1,1.361-2.292,8.22,8.22,0,0,1,4.329-.882,19.077,19.077,0,0,1,7.389,1.58,2.628,2.628,0,0,0,3.44-1.411l1.058-2.552a2.633,2.633,0,0,0-1.4-3.455,23.361,23.361,0,0,0-2.35-.81,30.074,30.074,0,0,0-5.513-1.008v-2.8a2.637,2.637,0,0,0-2.637-2.638h-.771a2.634,2.634,0,0,0-2.635,2.638v2.9q-5.895.707-9.015,3.8a10.088,10.088,0,0,0-3.124,7.428,8.494,8.494,0,0,0,1.914,5.841,11.154,11.154,0,0,0,4.582,3.145,49.915,49.915,0,0,0,6.647,1.839,30.329,30.329,0,0,1,5.261,1.537,2.379,2.379,0,0,1,1.638,2.242q0,2.866-5.74,2.868a20.787,20.787,0,0,1-6.143-.957,22.781,22.781,0,0,1-3.067-1.17,2.659,2.659,0,0,0-3.591,1.281l-1.13,2.534a2.616,2.616,0,0,0,1.213,3.433,25.153,25.153,0,0,0,3.4,1.3,31.685,31.685,0,0,0,7.155,1.281v2.753a2.634,2.634,0,0,0,2.635,2.634h.771a2.636,2.636,0,0,0,2.637-2.634v-2.955q5.691-.858,8.684-3.9a9.952,9.952,0,0,0,3-7.223,8.338,8.338,0,0,0-1.94-5.816A11.533,11.533,0,0,0,1488.156,268.1Z" transform="translate(-1440.795 -199.524)" fill="#3478f5"/>
    </g>
  </g>
</svg>
