<svg xmlns="http://www.w3.org/2000/svg" width="173.056" height="178.131" viewBox="0 0 173.056 178.131">
  <g id="Group_2069" data-name="Group 2069" transform="translate(-301.472 -5278.869)">
    <g id="Group_1628" data-name="Group 1628" transform="translate(301.472 5333.275)">
      <path id="Path_1046" data-name="Path 1046" d="M516.118,476.981c-.022-.065,0-.137-.029-.2l-8.36-19.769a7.382,7.382,0,0,0-6.813-4.517h-22v-4.221h9.526a2.339,2.339,0,0,0,2.339-2.339V428.26a2.339,2.339,0,0,0-2.339-2.339H439.556a2.339,2.339,0,0,0-2.339,2.339v17.674a2.339,2.339,0,0,0,2.339,2.339h9.526v4.221h-22a7.383,7.383,0,0,0-6.813,4.517l-8.357,19.761a2.348,2.348,0,0,0-.194.932v6.046a14.654,14.654,0,0,0,7.306,12.668v43.438c0,5.4,4.031,9.789,9.033,9.789h71.869c5,0,9.069-4.391,9.069-9.789V496.419a14.667,14.667,0,0,0,7.27-12.668V477.7A2.292,2.292,0,0,0,516.118,476.981Zm-54.458,6.572a10.233,10.233,0,0,1-20.467.054V480.03H461.66Zm24.875-8.2h-20.2V457.173h18.167Zm-24.875,0h-20.2l2.03-18.178H461.66Zm4.679,4.678h20.474v3.523a10.237,10.237,0,1,1-20.474,0Zm37.083-21.2,6.985,16.519H491.243l-2.03-18.178h11.7A2.718,2.718,0,0,1,503.422,458.832ZM441.9,430.6h44.212v13H441.9Zm11.866,17.674h20.477v4.221H453.761Zm-29.183,10.559a2.714,2.714,0,0,1,2.5-1.659h11.7l-2.03,18.178H417.592Zm-8.18,24.918v-3.707h20.11v3.509l.007.047v.151a10.045,10.045,0,0,1-10.041,10.041A10.11,10.11,0,0,1,416.4,483.751Zm76,60.821H471.921v-35.51a1.362,1.362,0,0,1,1.361-1.36h17.76a1.364,1.364,0,0,1,1.36,1.36Zm11.916-4.715a4.578,4.578,0,0,1-4.391,4.715H497.08v-35.51a6.038,6.038,0,0,0-6.039-6.039h-17.76a6.038,6.038,0,0,0-6.039,6.039v35.51H428.058a4.549,4.549,0,0,1-4.355-4.715V498.218a14.182,14.182,0,0,0,2.771.252,14.707,14.707,0,0,0,12.412-6.9A14.831,14.831,0,0,0,464,491.5a14.831,14.831,0,0,0,25.12.061,14.673,14.673,0,0,0,12.427,6.913,17.633,17.633,0,0,0,2.771-.252Zm7.27-56.106A9.829,9.829,0,0,1,509,490.445a9.584,9.584,0,0,1-4.678,2.951,9.921,9.921,0,0,1-2.771.4,10.045,10.045,0,0,1-10.041-10.041v-3.707h20.082Z" transform="translate(-411.719 -425.921)" fill="#3478f5"/>
      <path id="Path_1047" data-name="Path 1047" d="M429.889,448.126A12.515,12.515,0,1,0,442.4,460.639,12.528,12.528,0,0,0,429.889,448.126Zm0,20.352a7.837,7.837,0,1,1,7.838-7.838A7.846,7.846,0,0,1,429.889,468.477Z" transform="translate(-397.017 -368.213)" fill="#3478f5"/>
    </g>
    <g id="Group_1629" data-name="Group 1629" transform="translate(397.322 5278.869)">
      <path id="Path_1048" data-name="Path 1048" d="M979.81,594.158a38.65,38.65,0,0,0-38.605,38.6c0,15.381,19.52,45.824,31.159,62.6a9.05,9.05,0,0,0,7.443,3.9h0a9.053,9.053,0,0,0,7.442-3.9c11.639-16.778,31.159-47.224,31.159-62.6A38.65,38.65,0,0,0,979.81,594.158Zm3.6,98.54a4.327,4.327,0,0,1-3.6,1.886h0a4.323,4.323,0,0,1-3.6-1.886c-9.116-13.146-30.324-45.3-30.324-59.935a33.925,33.925,0,0,1,67.849,0C1013.732,647.389,992.525,679.552,983.409,692.7Z" transform="translate(-941.205 -594.158)" fill="#3478f5"/>
      <path id="Path_1049" data-name="Path 1049" d="M970.1,597.769a25.152,25.152,0,1,0,25.149,25.153A25.18,25.18,0,0,0,970.1,597.769Zm0,45.623a20.472,20.472,0,1,1,20.47-20.47A20.494,20.494,0,0,1,970.1,643.392Z" transform="translate(-931.49 -584.773)" fill="#3478f5"/>
    </g>
  </g>
</svg>
