<svg xmlns="http://www.w3.org/2000/svg" width="245" height="80.143" viewBox="0 0 245 80.143">
  <g id="Group_1613" data-name="Group 1613" transform="translate(-625 -594.752)">
    <path id="Path_35" data-name="Path 35" d="M179.3,1024.871v-66.8a6.672,6.672,0,0,1,6.674-6.674H417.624a6.672,6.672,0,0,1,6.674,6.674v66.8a6.671,6.671,0,0,1-5.372,6.545,6.629,6.629,0,0,1-1.3.128H185.971a6.677,6.677,0,0,1-6.166-4.119,6.675,6.675,0,0,1-.507-2.554Z" transform="translate(445.702 -356.649)"/>
    <path id="Path_36" data-name="Path 36" d="M370.4,988.737a4.147,4.147,0,0,0-3.43,1.313,6.759,6.759,0,0,0-1.089,4.18v.522q0,3.261,1.089,4.667a4.138,4.138,0,0,0,3.486,1.4A3.629,3.629,0,0,0,373.6,999.2a7.7,7.7,0,0,0,1.135-4.477,7.416,7.416,0,0,0-1.135-4.439,3.741,3.741,0,0,0-3.2-1.546m.339,14.049a6.68,6.68,0,0,1-2.759-.559,5.18,5.18,0,0,1-2.1-1.713h-.171a20.19,20.19,0,0,1,.171,2.569v6.366h-2.342V987.028h1.9l.326,2.12h.112a5.442,5.442,0,0,1,2.105-1.837,6.383,6.383,0,0,1,2.751-.565,5.72,5.72,0,0,1,4.752,2.1,11.211,11.211,0,0,1-.027,11.826,5.739,5.739,0,0,1-4.725,2.11" transform="translate(445.46 -356.695)" fill="#fafafa"/>
    <rect id="Rectangle_17" data-name="Rectangle 17" width="2.344" height="21.968" transform="translate(825.707 623.84)" fill="#fafafa"/>
    <path id="Path_37" data-name="Path 37" d="M390.8,1000.852a4.765,4.765,0,0,0,3.437-1.2,4.441,4.441,0,0,0,1.251-3.362v-1.4l-2.347.1a8.543,8.543,0,0,0-4.029.868,2.617,2.617,0,0,0-1.237,2.393,2.415,2.415,0,0,0,.77,1.935,3.2,3.2,0,0,0,2.154.664m5.3,1.651-.467-2.2h-.113a6.48,6.48,0,0,1-2.308,1.969,7.034,7.034,0,0,1-2.872.515,5.173,5.173,0,0,1-3.609-1.186,4.322,4.322,0,0,1-1.3-3.373q0-4.69,7.5-4.915l2.626-.084v-.961a3.91,3.91,0,0,0-.785-2.69,3.224,3.224,0,0,0-2.506-.869,10.227,10.227,0,0,0-4.377,1.185l-.719-1.793a11.116,11.116,0,0,1,2.507-.974,10.875,10.875,0,0,1,2.731-.354A5.906,5.906,0,0,1,396.5,988a5.143,5.143,0,0,1,1.332,3.94v10.56Z" transform="translate(445.431 -356.695)" fill="#fafafa"/>
    <path id="Path_38" data-name="Path 38" d="M399.209,987.03h2.512l3.39,8.824a33.383,33.383,0,0,1,1.383,4.364h.112q.187-.722.77-2.467t3.833-10.722h2.516l-6.651,17.62a8.8,8.8,0,0,1-2.31,3.708,4.908,4.908,0,0,1-3.238,1.093,9.528,9.528,0,0,1-2.12-.239v-1.879a8.112,8.112,0,0,0,1.738.171q2.416,0,3.445-2.711l.861-2.2Z" transform="translate(445.413 -356.696)" fill="#fafafa"/>
    <path id="Path_39" data-name="Path 39" d="M325.9,996.69a3.278,3.278,0,0,0,.807-2.363c0-2.331-1.391-5.955-4.077-5.955a3.018,3.018,0,0,0-2.265,1.069,3.738,3.738,0,0,0-.712,2.395c0,2.169,1.261,5.762,4.047,5.762a3.317,3.317,0,0,0,2.2-.908m-.939,6.15a5.017,5.017,0,0,0-.744-.034,12.878,12.878,0,0,0-3.4.52c-.711.258-2.784,1.035-2.784,3.333s2.233,3.951,5.7,3.951c3.1,0,4.759-1.493,4.759-3.5,0-1.653-1.072-2.524-3.53-4.272m2.3-14.37a5.453,5.453,0,0,1,2.3,4.369c0,2.394-1.359,3.528-2.719,4.595a2.277,2.277,0,0,0-.906,1.587,1.779,1.779,0,0,0,.841,1.392l1.167.9c1.424,1.2,2.717,2.3,2.717,4.533,0,3.042-2.946,6.116-8.512,6.116-4.695,0-6.958-2.231-6.958-4.628a4.652,4.652,0,0,1,2.492-3.948c2-1.23,4.726-1.393,6.181-1.49a3.4,3.4,0,0,1-.971-2.2,2.9,2.9,0,0,1,.325-1.262c-.359.034-.715.065-1.04.065a5.116,5.116,0,0,1-5.369-5.08,5.824,5.824,0,0,1,2.069-4.336,8.82,8.82,0,0,1,5.794-1.781h6.666l-2.071,1.165Z" transform="translate(445.523 -356.696)" fill="#fafafa"/>
    <path id="Path_40" data-name="Path 40" d="M310.9,999.7a5.852,5.852,0,0,0,.971-3.588c0-2.844-1.356-8.27-5.364-8.27a4.5,4.5,0,0,0-2.908,1.1,4.9,4.9,0,0,0-1.488,3.943c0,3.2,1.584,8.464,5.495,8.464A4.126,4.126,0,0,0,310.9,999.7m-4.039,2.618a7.624,7.624,0,0,1-7.883-7.627c0-4.233,3.454-7.852,8.371-7.852a7.554,7.554,0,0,1,7.719,7.626,7.9,7.9,0,0,1-8.207,7.853" transform="translate(445.545 -356.696)" fill="#fafafa"/>
    <path id="Path_41" data-name="Path 41" d="M293.365,999.7a5.852,5.852,0,0,0,.971-3.588c0-2.844-1.358-8.27-5.366-8.27a4.5,4.5,0,0,0-2.907,1.1,4.894,4.894,0,0,0-1.486,3.943c0,3.2,1.583,8.464,5.5,8.464a4.123,4.123,0,0,0,3.293-1.647m-4.039,2.618a7.626,7.626,0,0,1-7.885-7.627c0-4.233,3.457-7.852,8.371-7.852a7.553,7.553,0,0,1,7.721,7.626,7.9,7.9,0,0,1-8.207,7.853" transform="translate(445.568 -356.696)" fill="#fafafa"/>
    <path id="Path_42" data-name="Path 42" d="M278.942,1001.806l-4.647,1.072a34.479,34.479,0,0,1-5.36.55c-8.967,0-12.379-6.594-12.379-11.762,0-6.3,4.842-12.147,13.126-12.147a18.711,18.711,0,0,1,4.971.683,12.694,12.694,0,0,1,4.288,2.012l-2.7,2.567-1.137.259.814-1.3a9.284,9.284,0,0,0-6.953-3.052c-5.133,0-9,3.9-9,9.583,0,6.105,4.42,11.856,11.5,11.856a9.676,9.676,0,0,0,4.126-.813v-5.229l-4.906.26,2.6-1.4h6.888l-.845.812a.761.761,0,0,0-.326.518c-.033.294-.063,1.236-.063,1.561Z" transform="translate(445.6 -356.686)" fill="#fafafa"/>
    <path id="Path_43" data-name="Path 43" d="M337.55,1000.869c-1.073-.1-1.3-.294-1.3-1.561V980.92c.008-.07.011-.141.017-.209.132-1.136.455-1.331,1.464-1.916h-4.647l-2.438,1.17h2.484v.013l0-.009v20.056c0,.648-.128.745-.877,1.72h5.751l1.2-.712c-.549-.066-1.1-.1-1.657-.164" transform="translate(445.503 -356.685)" fill="#fafafa"/>
    <path id="Path_44" data-name="Path 44" d="M347.749,991.563c.611-.226.934-.42.934-.871a3.2,3.2,0,0,0-3.194-2.774c-1.29,0-3.71,1-3.71,4.485,0,.547.065,1.13.1,1.71Zm3.031,9.615c-.354.194-.707.419-1.062.58a7.511,7.511,0,0,1-3.133.614,6.887,6.887,0,0,1-4.291-1.259A8.354,8.354,0,0,1,339,994.3a7.311,7.311,0,0,1,7.388-7.45,6.28,6.28,0,0,1,3.326.9,5.336,5.336,0,0,1,2.254,3.194l-7.578,3.066-2.486.193c.807,4.1,3.58,6.482,6.646,6.482a8.341,8.341,0,0,0,3.937-1.128Z" transform="translate(445.492 -356.696)" fill="#fafafa"/>
    <path id="Path_45" data-name="Path 45" d="M353.913,987.073V989.2h-.258v-2.128h-.707v-.22h1.669v.22Z" transform="translate(445.474 -356.696)" fill="#fafafa"/>
    <path id="Path_46" data-name="Path 46" d="M356.818,989.2v-2.149h-.013l-.655,2.149h-.2l-.661-2.149h-.008V989.2h-.237v-2.349h.4l.6,1.9h.008l.592-1.9h.407V989.2Z" transform="translate(445.471 -356.696)" fill="#fafafa"/>
    <path id="Path_47" data-name="Path 47" d="M260.68,970.326a28.45,28.45,0,0,1-.863-2.815h-.081q0,.2-.893,2.815Zm2.33,2.85H261.4a10.661,10.661,0,0,0-.458-1.886h-2.331a9.671,9.671,0,0,0-.473,1.886h-1.52q0-.2,1.179-3.228a25.176,25.176,0,0,0,1.176-3.341h1.908a27.725,27.725,0,0,0,1.066,3.292,28.6,28.6,0,0,1,1.067,3.277" transform="translate(445.6 -356.669)" fill="#fbfcfc"/>
    <path id="Path_48" data-name="Path 48" d="M269.525,973.175h-1.246a12.415,12.415,0,0,0-1.387-2.185,12.064,12.064,0,0,1-1.655-2.848h-.079a17.975,17.975,0,0,1,.125,2q0,1.248.071,3.038h-1.241q.075-1.565.076-3.435,0-1.841-.076-3.134h1.5a9.483,9.483,0,0,0,1.247,2.135,12.569,12.569,0,0,1,1.522,2.688h.076a19,19,0,0,1-.12-2.017c0-.913-.024-1.847-.071-2.806h1.26q-.07,1.252-.071,3.134t.071,3.435" transform="translate(445.591 -356.669)" fill="#fbfcfc"/>
    <path id="Path_49" data-name="Path 49" d="M275.468,969.882a2.436,2.436,0,0,0-.565-1.634,2.147,2.147,0,0,0-1.725-.662,5.614,5.614,0,0,0-.594.045c.032.673.05,1.376.05,2.109q0,1.2.05,2.392a3.4,3.4,0,0,0,.657.066,1.912,1.912,0,0,0,1.608-.674,2.61,2.61,0,0,0,.519-1.642m1.379-.219a3.721,3.721,0,0,1-.92,2.5,3.2,3.2,0,0,1-2.573,1.07q-.746,0-2.056-.06.063-1.525.065-3.435,0-1.837-.065-3.134h.882c.146,0,.36,0,.645-.014s.472-.015.56-.015a3.4,3.4,0,0,1,2.642.908,3.142,3.142,0,0,1,.82,2.178" transform="translate(445.581 -356.669)" fill="#fbfcfc"/>
    <path id="Path_50" data-name="Path 50" d="M281.705,968.534q0-1-1.291-1a4.421,4.421,0,0,0-.837.071q.054.78.055,2.038c.185.007.343.009.47.009q1.6,0,1.6-1.115m1.892,4.641H282.1a9.973,9.973,0,0,0-.9-2.2,1.181,1.181,0,0,0-1.01-.419c-.195,0-.38,0-.559.006q0,1.3.046,2.618h-1.4q.063-1.525.065-3.435,0-1.837-.065-3.132h.872c.1,0,.312,0,.632-.016s.619-.015.891-.015q2.314,0,2.316,1.585a1.78,1.78,0,0,1-1.32,1.751v.075a1.575,1.575,0,0,1,.891.794,17.474,17.474,0,0,1,1.035,2.394" transform="translate(445.572 -356.669)" fill="#fbfcfc"/>
    <path id="Path_51" data-name="Path 51" d="M289.444,969.917a2.609,2.609,0,0,0-.54-1.712,1.668,1.668,0,0,0-1.332-.654,1.535,1.535,0,0,0-1.25.661,2.634,2.634,0,0,0-.516,1.671,2.59,2.59,0,0,0,.543,1.7,1.656,1.656,0,0,0,1.329.658,1.531,1.531,0,0,0,1.251-.663,2.629,2.629,0,0,0,.515-1.666m1.39-.148a3.626,3.626,0,0,1-.948,2.57,3.081,3.081,0,0,1-2.345,1.019,2.955,2.955,0,0,1-2.23-.937,3.3,3.3,0,0,1-.9-2.378,3.622,3.622,0,0,1,.949-2.569,3.079,3.079,0,0,1,2.347-1.019,2.973,2.973,0,0,1,2.23.934,3.293,3.293,0,0,1,.9,2.38" transform="translate(445.564 -356.669)" fill="#fbfcfc"/>
    <path id="Path_52" data-name="Path 52" d="M293.7,973.175H292.27q.064-1.565.066-3.435,0-1.841-.066-3.134H293.7q-.063,1.272-.065,3.134,0,1.9.065,3.435" transform="translate(445.554 -356.669)" fill="#fbfcfc"/>
    <path id="Path_53" data-name="Path 53" d="M299.637,969.882a2.436,2.436,0,0,0-.565-1.634,2.146,2.146,0,0,0-1.725-.662,5.61,5.61,0,0,0-.6.045q.049,1.01.051,2.109,0,1.2.05,2.392a3.4,3.4,0,0,0,.656.066,1.905,1.905,0,0,0,1.606-.674,2.6,2.6,0,0,0,.522-1.642m1.377-.219a3.716,3.716,0,0,1-.919,2.5,3.2,3.2,0,0,1-2.572,1.07q-.746,0-2.058-.06.066-1.525.067-3.435,0-1.837-.067-3.134h.883c.145,0,.359,0,.645-.014s.471-.015.561-.015a3.394,3.394,0,0,1,2.64.908,3.133,3.133,0,0,1,.82,2.178" transform="translate(445.549 -356.669)" fill="#fbfcfc"/>
    <path id="Path_54" data-name="Path 54" d="M308.4,970.326a28.311,28.311,0,0,1-.864-2.815h-.081a29.289,29.289,0,0,1-.893,2.815Zm2.329,2.85h-1.614a10.612,10.612,0,0,0-.459-1.886h-2.33a9.672,9.672,0,0,0-.473,1.886H304.33q0-.2,1.178-3.228a25.173,25.173,0,0,0,1.176-3.341h1.908a28.315,28.315,0,0,0,1.067,3.292,28.59,28.59,0,0,1,1.067,3.277" transform="translate(445.538 -356.669)" fill="#fbfcfc"/>
    <path id="Path_55" data-name="Path 55" d="M315.32,968.6c0-.717-.478-1.079-1.432-1.079a4.143,4.143,0,0,0-.759.076c.039.633.057,1.354.057,2.159.084.006.181.009.292.009q1.843,0,1.843-1.165m1.3-.277a1.968,1.968,0,0,1-.9,1.781,3.979,3.979,0,0,1-2.2.574c-.159,0-.271,0-.338-.01q0,.95.055,2.5h-1.418q.066-1.456.067-3.435c0-1.211-.023-2.253-.067-3.132h.879q.184,0,.715-.016c.354-.01.659-.015.919-.015a2.9,2.9,0,0,1,1.621.434,1.468,1.468,0,0,1,.659,1.316" transform="translate(445.528 -356.669)" fill="#fbfcfc"/>
    <path id="Path_56" data-name="Path 56" d="M321.378,968.6c0-.717-.478-1.079-1.434-1.079a4.123,4.123,0,0,0-.757.076c.039.633.057,1.354.057,2.159.082.006.181.009.292.009q1.843,0,1.843-1.165m1.3-.277a1.968,1.968,0,0,1-.9,1.781,3.981,3.981,0,0,1-2.2.574c-.159,0-.271,0-.339-.01q0,.95.056,2.5h-1.418q.064-1.456.065-3.435c0-1.211-.022-2.253-.065-3.132h.877q.187,0,.717-.016c.354-.01.658-.015.919-.015a2.884,2.884,0,0,1,1.619.434,1.465,1.465,0,0,1,.661,1.316" transform="translate(445.52 -356.669)" fill="#fbfcfc"/>
    <path id="Path_57" data-name="Path 57" d="M331.189,969.917a2.6,2.6,0,0,0-.539-1.712,1.664,1.664,0,0,0-1.33-.654,1.539,1.539,0,0,0-1.253.661,2.645,2.645,0,0,0-.513,1.671,2.585,2.585,0,0,0,.542,1.7,1.65,1.65,0,0,0,1.329.658,1.532,1.532,0,0,0,1.251-.663,2.628,2.628,0,0,0,.513-1.666m1.392-.148a3.626,3.626,0,0,1-.948,2.57,3.081,3.081,0,0,1-2.345,1.019,2.955,2.955,0,0,1-2.23-.937,3.3,3.3,0,0,1-.9-2.378,3.623,3.623,0,0,1,.95-2.569,3.076,3.076,0,0,1,2.347-1.019,2.973,2.973,0,0,1,2.23.934,3.293,3.293,0,0,1,.9,2.38" transform="translate(445.509 -356.669)" fill="#fbfcfc"/>
    <path id="Path_58" data-name="Path 58" d="M339.43,973.175h-1.246a12.342,12.342,0,0,0-1.387-2.185,12.1,12.1,0,0,1-1.655-2.848h-.08a18.013,18.013,0,0,1,.127,2q0,1.248.07,3.038h-1.241q.075-1.565.076-3.435,0-1.841-.076-3.134h1.5a9.409,9.409,0,0,0,1.246,2.135,12.588,12.588,0,0,1,1.523,2.688h.077a18.782,18.782,0,0,1-.122-2.017c0-.913-.025-1.847-.072-2.806h1.261q-.07,1.252-.07,3.134t.07,3.435" transform="translate(445.499 -356.669)" fill="#fbfcfc"/>
    <g id="bBPfUG" transform="translate(647.585 611.095)">
      <g id="Group_19" data-name="Group 19">
        <path id="Path_82" data-name="Path 82" d="M221.658,992.642c-6.329,6.375-12.982,13.077-19.745,19.891V972.706Z" transform="translate(-201.913 -967.772)" fill="#fff"/>
        <path id="Path_83" data-name="Path 83" d="M224.321,990.015l-21.282-21.477a2.684,2.684,0,0,1,3.294-.394c1.1.521,2.146,1.157,3.213,1.749q10.536,5.833,21.067,11.671c.477.266.937.564,1.3.785Z" transform="translate(-201.914 -967.766)" fill="#fff"/>
        <path id="Path_84" data-name="Path 84" d="M231.528,1002.316a2.8,2.8,0,0,1-.391.266q-12.128,6.729-24.26,13.452c-1.233.684-2.456.932-3.534.147l21-21.166Z" transform="translate(-201.915 -967.802)" fill="#fff"/>
        <path id="Path_85" data-name="Path 85" d="M235.178,984.1c3.265,1.813,6.579,3.567,9.8,5.473a2.973,2.973,0,0,1-.049,5.333c-3.1,1.824-6.271,3.53-9.444,5.228a1.381,1.381,0,0,1-1.268-.131c-2.545-2.468-5.031-5-7.449-7.419Z" transform="translate(-201.946 -967.787)" fill="#fff"/>
      </g>
    </g>
  </g>
</svg>
